<svg xmlns="http://www.w3.org/2000/svg" width="188.067" height="28.74" viewBox="0 0 188.067 28.74">
  <g id="DDLogoWhite4" transform="translate(-11158.339 5641.802)">
    <g id="Group_315" data-name="Group 315" transform="translate(11197.163 -5635.704)">
      <path id="Path_3502" data-name="Path 3502" d="M123.152,389.78a7.5,7.5,0,0,1,5.652,2.374,8.684,8.684,0,0,1,0,11.7,7.494,7.494,0,0,1-5.652,2.374h-6.533V389.78Zm0,13.348a4.558,4.558,0,0,0,3.477-1.421,5.785,5.785,0,0,0,0-7.4,4.561,4.561,0,0,0-3.477-1.421h-3.29v10.245Z" transform="translate(-116.619 -389.778)" fill="#fff"/>
      <path id="Path_3503" data-name="Path 3503" d="M144.405,394.152a4.257,4.257,0,0,1,3.184,1.292,4.908,4.908,0,0,1,1.257,3.573v7.214h-3.032v-6.838a2.41,2.41,0,0,0-.634-1.8,2.313,2.313,0,0,0-1.692-.625,2.5,2.5,0,0,0-1.876.729,3.029,3.029,0,0,0-.7,2.185v6.345h-3.031V389.781h3.031v6.02A3.915,3.915,0,0,1,144.405,394.152Z" transform="translate(-121.258 -389.779)" fill="#fff"/>
      <path id="Path_3504" data-name="Path 3504" d="M163.973,395.7H167v11.75h-3.032v-1.386a4.613,4.613,0,0,1-3.831,1.715,5.316,5.316,0,0,1-4.029-1.8,6.615,6.615,0,0,1,0-8.812,5.322,5.322,0,0,1,4.029-1.8,4.613,4.613,0,0,1,3.831,1.715Zm-5.593,8.26a3.127,3.127,0,0,0,2.327.929,3.17,3.17,0,0,0,2.338-.929,3.528,3.528,0,0,0,0-4.769,3.173,3.173,0,0,0-2.338-.929,3.133,3.133,0,0,0-2.327.929,3.562,3.562,0,0,0,0,4.769Z" transform="translate(-124.87 -390.997)" fill="#fff"/>
      <path id="Path_3505" data-name="Path 3505" d="M184.863,406.231h-3.525l-4.276-5.338v5.338H174.03v-16.45h3.032v9.89l4.042-5.19h3.619l-4.723,5.8Z" transform="translate(-129.147 -389.779)" fill="#fff"/>
      <path id="Path_3506" data-name="Path 3506" d="M197.488,395.7h3.032v11.75h-3.032v-1.386a4.613,4.613,0,0,1-3.831,1.715,5.32,5.32,0,0,1-4.029-1.8,6.615,6.615,0,0,1,0-8.812,5.323,5.323,0,0,1,4.029-1.8,4.613,4.613,0,0,1,3.831,1.715Zm-5.591,8.26a3.132,3.132,0,0,0,2.327.929,3.17,3.17,0,0,0,2.338-.929,3.528,3.528,0,0,0,0-4.769,3.173,3.173,0,0,0-2.338-.929,3.134,3.134,0,0,0-2.327.928,3.562,3.562,0,0,0,0,4.769Z" transform="translate(-132.183 -390.997)" fill="#fff"/>
      <path id="Path_3507" data-name="Path 3507" d="M221.776,389.78a7.5,7.5,0,0,1,5.652,2.374,8.682,8.682,0,0,1,0,11.7,7.494,7.494,0,0,1-5.652,2.374H215.24V389.78Zm0,13.348a4.558,4.558,0,0,0,3.477-1.421,5.785,5.785,0,0,0,0-7.4,4.561,4.561,0,0,0-3.477-1.421h-3.29v10.245Z" transform="translate(-138.139 -389.778)" fill="#fff"/>
      <path id="Path_3508" data-name="Path 3508" d="M246.306,405.964a6.268,6.268,0,1,1,1.81-4.405A6.027,6.027,0,0,1,246.306,405.964Zm-6.685-2.08a3.053,3.053,0,0,0,2.267.917,3.1,3.1,0,0,0,2.28-.917,3.411,3.411,0,0,0,0-4.652,3.1,3.1,0,0,0-2.28-.917,3.056,3.056,0,0,0-2.267.917A3.44,3.44,0,0,0,239.621,403.884Z" transform="translate(-142.577 -390.981)" fill="#fff"/>
      <path id="Path_3509" data-name="Path 3509" d="M259.768,407.78a6.2,6.2,0,1,1,0-12.408,6.1,6.1,0,0,1,3.127.823,5.472,5.472,0,0,1,2.138,2.209l-2.607,1.524a2.664,2.664,0,0,0-1.069-1.152,3.11,3.11,0,0,0-1.609-.423,3.038,3.038,0,0,0-2.256.905,3.416,3.416,0,0,0,0,4.606,3.035,3.035,0,0,0,2.256.905,3.215,3.215,0,0,0,1.633-.412,2.589,2.589,0,0,0,1.069-1.139l2.632,1.5a5.885,5.885,0,0,1-2.189,2.22A6.029,6.029,0,0,1,259.768,407.78Z" transform="translate(-146.502 -390.999)" fill="#fff"/>
      <path id="Path_3510" data-name="Path 3510" d="M276.775,397.788h-2.658v4.887a1.162,1.162,0,0,0,.306.894,1.4,1.4,0,0,0,.893.313,12.969,12.969,0,0,0,1.457-.011v2.749q-3.127.353-4.406-.587a3.918,3.918,0,0,1-1.281-3.362v-4.887h-2.045v-2.914h2.045V392.5l3.031-.916v3.29h2.658Z" transform="translate(-149.879 -390.171)" fill="#fff"/>
      <path id="Path_3511" data-name="Path 3511" d="M291.029,405.964a6.268,6.268,0,1,1,1.81-4.405A6.027,6.027,0,0,1,291.029,405.964Zm-6.685-2.08a3.053,3.053,0,0,0,2.267.917,3.1,3.1,0,0,0,2.28-.917,3.411,3.411,0,0,0,0-4.652,3.1,3.1,0,0,0-2.28-.917,3.056,3.056,0,0,0-2.267.917A3.44,3.44,0,0,0,284.344,403.884Z" transform="translate(-152.336 -390.981)" fill="#fff"/>
      <path id="Path_3512" data-name="Path 3512" d="M302.1,397.748a3.163,3.163,0,0,1,1.4-1.692,4.26,4.26,0,0,1,2.173-.564v3.384a3.574,3.574,0,0,0-2.479.564,2.693,2.693,0,0,0-1.095,2.424v5.616h-3.031V395.727H302.1Z" transform="translate(-156.432 -391.025)" fill="#fff"/>
    </g>
    <path id="Path_3513" data-name="Path 3513" d="M193.6,941.066a2.684,2.684,0,1,1,0,5.369H183.76v-9.718a2.708,2.708,0,1,1,5.416,0v4.349Zm-23.275,0a2.684,2.684,0,1,0,0,5.369h9.694v-9.718a2.708,2.708,0,1,0-5.416,0v4.349ZM193.6,955.692a2.684,2.684,0,1,0,0-5.369H183.76v9.718a2.708,2.708,0,1,0,5.416,0v-4.348Zm-19,0v4.348a2.708,2.708,0,1,0,5.416,0v-9.718h-9.694a2.684,2.684,0,1,0,0,5.369Z" transform="translate(10990.695 -6575.811)" fill="#3cc6fa"/>
  </g>
</svg>
