<svg xmlns="http://www.w3.org/2000/svg" width="39.639" height="39.639" viewBox="0 0 39.639 39.639">
  <g id="Facebook" transform="translate(-39 -2626)">
    <path id="facebook_4_" data-name="facebook (4)" d="M39.639,19.82a19.82,19.82,0,1,0-19.82,19.82c.116,0,.232,0,.348-.008V24.209H15.91V19.247h4.258V15.592c0-4.235,2.586-6.542,6.364-6.542a34.59,34.59,0,0,1,3.817.194v4.428h-2.6c-2.052,0-2.454.975-2.454,2.408v3.159h4.916L29.567,24.2H25.293V38.873A19.826,19.826,0,0,0,39.639,19.82Z" transform="translate(39 2626)" fill="#292222"/>
  </g>
</svg>
