<svg xmlns="http://www.w3.org/2000/svg" width="23.162" height="22.473" viewBox="0 0 23.162 22.473">
  <g id="Upload" transform="translate(-129.234 -1100.527)">
    <g id="photo_1_" data-name="photo (1)" transform="translate(129.234 1100.527)">
      <g id="Group_40" data-name="Group 40" transform="translate(0 0)">
        <g id="Group_39" data-name="Group 39" transform="translate(0 0)">
          <path id="Path_3397" data-name="Path 3397" d="M20.708,0,2.578.095C1.212.1.1,1.61.087,3.464L0,19.129c-.01,1.854,1.088,3.351,2.454,3.344l18.13-.095c1.365-.007,2.481-1.516,2.491-3.37l.087-15.665C23.172,1.49,22.073-.007,20.708,0Zm.752,12.96L16.313,5.945a.682.682,0,0,0-1.165.006L8.262,15.266,5.569,11.6A.682.682,0,0,0,4.4,11.6L1.669,15.3,1.735,3.456c0-.618.375-1.121.83-1.123L20.7,2.238c.455,0,.821.5.818,1.115L21.46,12.96Z" transform="translate(0 0)" fill="#3cc6fa"/>
        </g>
      </g>
      <g id="Group_42" data-name="Group 42" transform="translate(5.065 5.148)">
        <g id="Group_41" data-name="Group 41" transform="translate(0 0)">
          <path id="Path_3399" data-name="Path 3399" d="M2.394,0A2.35,2.35,0,0,1,4.762,2.367,2.412,2.412,0,0,1,2.369,4.761,2.35,2.35,0,0,1,0,2.394,2.412,2.412,0,0,1,2.394,0Z" transform="translate(0 0)" fill="#3cc6fa"/>
        </g>
      </g>
    </g>
  </g>
</svg>
